<svg width="332" height="60" fill="none" xmlns="http://www.w3.org/2000/svg">
    <rect width="332" height="60" rx="10" fill="#111" />
    <path
        d="M32.288 19h15.6v5.49h-2.22v-3.27h-4.35v16.56h3.3V40h-9.09v-2.22h3.3V21.22h-4.32v3.27h-2.22V19zm16.908 0h4.68v7.86h.15c.62-.7 1.34-1.24 2.16-1.62.82-.4 1.84-.6 3.06-.6.96 0 1.79.1 2.49.3.72.2 1.3.55 1.74 1.05.46.5.8 1.19 1.02 2.07.22.86.33 1.96.33 3.3V40h-2.34v-8.19c0-.86-.05-1.61-.15-2.25-.1-.64-.3-1.17-.6-1.59-.28-.44-.67-.77-1.17-.99-.5-.22-1.14-.33-1.92-.33-.54 0-1.07.1-1.59.3a5.034 5.034 0 00-2.55 1.98c-.3.46-.51.97-.63 1.53V40h-2.31V21.01h-2.37V19zm33.739 19.11c-.36.32-.79.62-1.29.9-.48.28-1.01.52-1.59.72-.58.2-1.19.35-1.83.45-.62.12-1.25.18-1.89.18-1.2 0-2.26-.18-3.18-.54-.92-.38-1.69-.91-2.31-1.59-.62-.7-1.09-1.53-1.41-2.49-.32-.96-.48-2.04-.48-3.24 0-1.26.17-2.38.51-3.36.36-.98.87-1.8 1.53-2.46.66-.66 1.46-1.16 2.4-1.5.94-.36 1.99-.54 3.15-.54.84 0 1.67.11 2.49.33.82.22 1.54.64 2.16 1.26.64.6 1.13 1.44 1.47 2.52.34 1.06.46 2.44.36 4.14h-11.61c0 1.8.48 3.15 1.44 4.05.98.88 2.28 1.32 3.9 1.32.54 0 1.07-.06 1.59-.18.54-.14 1.05-.3 1.53-.48s.9-.38 1.26-.6c.38-.22.67-.42.87-.6l.93 1.71zm-6.33-11.49c-.66 0-1.29.07-1.89.21-.58.14-1.1.38-1.56.72-.44.32-.81.75-1.11 1.29-.28.52-.46 1.17-.54 1.95h9.33c-.1-1.32-.53-2.34-1.29-3.06-.74-.74-1.72-1.11-2.94-1.11zm42.306 11.49c-.36.32-.79.62-1.29.9-.48.28-1.01.52-1.59.72-.58.2-1.19.35-1.83.45-.62.12-1.25.18-1.89.18-1.2 0-2.26-.18-3.18-.54-.92-.38-1.69-.91-2.31-1.59-.62-.7-1.09-1.53-1.41-2.49-.32-.96-.48-2.04-.48-3.24 0-1.26.17-2.38.51-3.36.36-.98.87-1.8 1.53-2.46.66-.66 1.46-1.16 2.4-1.5.94-.36 1.99-.54 3.15-.54.84 0 1.67.11 2.49.33.82.22 1.54.64 2.16 1.26.64.6 1.13 1.44 1.47 2.52.34 1.06.46 2.44.36 4.14h-11.61c0 1.8.48 3.15 1.44 4.05.98.88 2.28 1.32 3.9 1.32.54 0 1.07-.06 1.59-.18.54-.14 1.05-.3 1.53-.48s.9-.38 1.26-.6c.38-.22.67-.42.87-.6l.93 1.71zm-6.33-11.49c-.66 0-1.29.07-1.89.21-.58.14-1.1.38-1.56.72-.44.32-.81.75-1.11 1.29-.28.52-.46 1.17-.54 1.95h9.33c-.1-1.32-.53-2.34-1.29-3.06-.74-.74-1.72-1.11-2.94-1.11zM128.889 40v-9.99c0-.42-.02-.82-.06-1.2-.02-.4-.09-.75-.21-1.05-.1-.32-.26-.57-.48-.75-.2-.18-.47-.27-.81-.27-.68 0-1.26.28-1.74.84-.46.56-.81 1.26-1.05 2.1V40h-2.28V25h1.56l.45 1.83h.12c.2-.3.39-.58.57-.84.2-.28.42-.52.66-.72.26-.2.56-.35.9-.45.34-.12.77-.18 1.29-.18.3 0 .61.05.93.15.32.08.61.22.87.42.28.18.52.43.72.75.2.32.33.71.39 1.17.46-.78.97-1.39 1.53-1.83.58-.44 1.37-.66 2.37-.66.66 0 1.19.11 1.59.33.42.22.74.54.96.96.24.4.4.89.48 1.47.1.56.15 1.19.15 1.89V40h-2.28V29.8c0-.42-.02-.81-.06-1.17-.04-.38-.12-.71-.24-.99-.1-.28-.25-.5-.45-.66-.18-.16-.43-.24-.75-.24-.7 0-1.29.28-1.77.84-.48.56-.84 1.36-1.08 2.4V40h-2.28zm11.839-7.5c0-2.42.63-4.33 1.89-5.73 1.26-1.42 3.06-2.13 5.4-2.13 1.26 0 2.34.21 3.24.63.92.4 1.68.95 2.28 1.65.6.7 1.04 1.53 1.32 2.49.3.96.45 1.99.45 3.09 0 1.2-.16 2.29-.48 3.27-.32.96-.79 1.78-1.41 2.46-.62.68-1.39 1.21-2.31 1.59-.9.36-1.93.54-3.09.54-1.24 0-2.32-.2-3.24-.6-.92-.42-1.68-.98-2.28-1.68-.6-.7-1.05-1.53-1.35-2.49-.28-.96-.42-1.99-.42-3.09zm2.49 0c0 .7.08 1.4.24 2.1.18.7.46 1.33.84 1.89.38.56.87 1.01 1.47 1.35.62.34 1.37.51 2.25.51 1.6 0 2.8-.49 3.6-1.47.82-1 1.23-2.46 1.23-4.38 0-.72-.09-1.42-.27-2.1-.16-.7-.44-1.33-.84-1.89-.38-.56-.88-1.01-1.5-1.35-.6-.34-1.34-.51-2.22-.51-1.6 0-2.8.49-3.6 1.47-.8.98-1.2 2.44-1.2 4.38zm23.868-5.49h-7.26V25h9.66v15.36c0 2.02-.52 3.52-1.56 4.5-1.02 1-2.44 1.5-4.26 1.5-.54 0-1.07-.07-1.59-.21-.5-.14-.97-.31-1.41-.51-.44-.18-.83-.37-1.17-.57-.32-.2-.56-.36-.72-.48l.99-1.95c.54.4 1.15.75 1.83 1.05.7.3 1.42.45 2.16.45 1.2 0 2.05-.38 2.55-1.14.52-.74.78-1.77.78-3.09v-12.9zm-1.26-6.27c0-.54.18-1 .54-1.38.36-.4.82-.6 1.38-.6.58 0 1.06.2 1.44.6.4.38.6.84.6 1.38 0 .52-.2.96-.6 1.32-.38.36-.86.54-1.44.54-.56 0-1.02-.18-1.38-.54-.36-.36-.54-.8-.54-1.32zM178.144 40v-2.01h5.22V27.01h-5.22V25h7.62v12.99h5.1V40h-12.72zm4.41-19.26c0-.54.18-1 .54-1.38.36-.4.82-.6 1.38-.6.58 0 1.06.2 1.44.6.4.38.6.84.6 1.38 0 .52-.2.96-.6 1.32-.38.36-.86.54-1.44.54-.56 0-1.02-.18-1.38-.54-.36-.36-.54-.8-.54-1.32zm31.297 9.51c0-.18-.01-.41-.03-.69 0-.3-.01-.6-.03-.9-.02-.32-.05-.63-.09-.93-.02-.3-.05-.56-.09-.78h-2.01V25h3.99l.3 2.1h.15c.54-.7 1.22-1.28 2.04-1.74.84-.48 1.86-.72 3.06-.72 2.14 0 3.75.59 4.83 1.77 1.08 1.18 1.62 3.11 1.62 5.79 0 1.26-.19 2.4-.57 3.42-.36 1-.88 1.85-1.56 2.55-.68.7-1.5 1.24-2.46 1.62-.96.38-2.02.57-3.18.57-.42 0-.8-.02-1.14-.06-.32-.02-.62-.06-.9-.12-.26-.04-.52-.1-.78-.18-.26-.08-.54-.18-.84-.3V46h-2.31V30.25zm6.9-3.42c-.6 0-1.17.11-1.71.33-.52.22-.99.51-1.41.87-.4.36-.73.76-.99 1.2-.26.44-.42.88-.48 1.32v6.84c.44.3.93.54 1.47.72.56.16 1.29.24 2.19.24 1.6 0 2.88-.52 3.84-1.56.96-1.06 1.44-2.6 1.44-4.62 0-1.7-.34-3.01-1.02-3.93-.66-.94-1.77-1.41-3.33-1.41zM232.109 40v-2.01h5.22V27.01h-5.22V25h7.62v12.99h5.1V40h-12.72zm4.41-19.26c0-.54.18-1 .54-1.38.36-.4.82-.6 1.38-.6.58 0 1.06.2 1.44.6.4.38.6.84.6 1.38 0 .52-.2.96-.6 1.32-.38.36-.86.54-1.44.54-.56 0-1.02-.18-1.38-.54-.36-.36-.54-.8-.54-1.32zm13.668 5.43c.86-.5 1.83-.86 2.91-1.08 1.08-.22 2.14-.33 3.18-.33 1.02 0 1.85.16 2.49.48.66.32 1.17.74 1.53 1.26.38.5.63 1.08.75 1.74.14.64.21 1.29.21 1.95 0 .76-.02 1.57-.06 2.43-.04.86-.07 1.72-.09 2.58 0 1 .06 1.95.18 2.85h2.01V40h-3.99l-.27-2.25h-.15c-.12.18-.3.41-.54.69-.24.28-.56.56-.96.84-.38.26-.85.49-1.41.69-.56.2-1.22.3-1.98.3-1.48 0-2.65-.38-3.51-1.14-.86-.76-1.29-1.8-1.29-3.12 0-1.02.22-1.87.66-2.55.46-.68 1.11-1.2 1.95-1.56.84-.36 1.85-.57 3.03-.63 1.2-.06 2.54.02 4.02.24.1-.92.11-1.68.03-2.28-.06-.62-.22-1.11-.48-1.47-.24-.36-.59-.61-1.05-.75-.44-.16-.99-.24-1.65-.24-.9 0-1.76.13-2.58.39-.82.24-1.55.49-2.19.75l-.75-1.74zm4.41 12.09c.56 0 1.08-.09 1.56-.27a4.756 4.756 0 002.16-1.59c.24-.34.42-.66.54-.96v-2.1c-1.04-.18-2-.27-2.88-.27-.88 0-1.64.1-2.28.3-.64.18-1.14.47-1.5.87-.36.4-.54.92-.54 1.56 0 .66.22 1.24.66 1.74.46.48 1.22.72 2.28.72zm13.129-8.01c0-.18-.01-.41-.03-.69 0-.3-.01-.6-.03-.9-.02-.32-.05-.63-.09-.93-.02-.3-.05-.56-.09-.78h-2.01V25h4.02l.27 2.43h.15c.2-.34.46-.67.78-.99.34-.34.73-.64 1.17-.9.44-.28.93-.5 1.47-.66.54-.16 1.11-.24 1.71-.24.92 0 1.73.1 2.43.3.72.2 1.31.56 1.77 1.08.48.5.84 1.19 1.08 2.07.24.86.36 1.96.36 3.3V40h-2.34v-8.16c0-1.66-.27-2.91-.81-3.75-.54-.84-1.52-1.26-2.94-1.26-.52 0-1.03.11-1.53.33-.48.2-.92.47-1.32.81-.4.34-.75.74-1.05 1.2-.3.44-.52.91-.66 1.41V40h-2.31v-9.75zm16.908 2.25c0-2.42.63-4.33 1.89-5.73 1.26-1.42 3.06-2.13 5.4-2.13 1.26 0 2.34.21 3.24.63.92.4 1.68.95 2.28 1.65.6.7 1.04 1.53 1.32 2.49.3.96.45 1.99.45 3.09 0 1.2-.16 2.29-.48 3.27-.32.96-.79 1.78-1.41 2.46-.62.68-1.39 1.21-2.31 1.59-.9.36-1.93.54-3.09.54-1.24 0-2.32-.2-3.24-.6-.92-.42-1.68-.98-2.28-1.68-.6-.7-1.05-1.53-1.35-2.49-.28-.96-.42-1.99-.42-3.09zm2.49 0c0 .7.08 1.4.24 2.1.18.7.46 1.33.84 1.89.38.56.87 1.01 1.47 1.35.62.34 1.37.51 2.25.51 1.6 0 2.8-.49 3.6-1.47.82-1 1.23-2.46 1.23-4.38 0-.72-.09-1.42-.27-2.1-.16-.7-.44-1.33-.84-1.89-.38-.56-.88-1.01-1.5-1.35-.6-.34-1.34-.51-2.22-.51-1.6 0-2.8.49-3.6 1.47-.8.98-1.2 2.44-1.2 4.38z"
        fill="#fff" /></svg>